<?xml version="1.0" standalone="no"?>
<!DOCTYPE svg PUBLIC "-//W3C//DTD SVG 20010904//EN"
 "http://www.w3.org/TR/2001/REC-SVG-20010904/DTD/svg10.dtd">
<svg version="1.0" xmlns="http://www.w3.org/2000/svg"
 width="320.000000pt" height="320.000000pt" viewBox="0 0 320.000000 320.000000"
 preserveAspectRatio="xMidYMid meet">
<metadata>
Created by potrace 1.14, written by Peter Selinger 2001-2017
</metadata>
<g transform="translate(0.000000,320.000000) scale(0.100000,-0.100000)"
fill="#000000" stroke="none">
<path d="M2631 3008 c14 -12 13 -15 -6 -33 -11 -11 -26 -20 -33 -21 -7 -1 -24
-2 -38 -2 -16 -1 -23 -6 -18 -14 4 -7 3 -8 -4 -4 -6 4 -22 1 -34 -6 -13 -7
-26 -11 -30 -10 -5 1 -8 -2 -8 -8 0 -5 -7 -10 -16 -10 -8 0 -22 -7 -31 -16 -9
-8 -23 -12 -31 -9 -9 3 -13 3 -10 -1 8 -8 -34 -44 -51 -44 -6 0 -11 -4 -11 -9
0 -5 -11 -12 -25 -15 -14 -4 -23 -11 -20 -16 3 -5 -6 -12 -20 -16 -14 -3 -25
-10 -25 -16 0 -5 -4 -7 -9 -3 -6 3 -14 -3 -20 -12 -6 -10 -11 -14 -11 -10 0 4
-11 -4 -25 -19 -14 -15 -25 -24 -25 -20 0 3 -14 -7 -31 -24 -18 -16 -38 -30
-45 -30 -8 0 -11 -6 -8 -15 4 -10 0 -15 -10 -15 -9 0 -27 -10 -40 -22 -12 -13
-38 -37 -57 -53 -19 -17 -44 -43 -56 -59 -13 -16 -23 -26 -23 -22 0 4 -11 -3
-23 -16 -13 -13 -41 -36 -63 -53 -21 -16 -57 -48 -80 -70 -93 -88 -102 -94
-133 -90 -17 2 -41 13 -53 25 -12 11 -26 20 -31 20 -5 0 -28 20 -51 45 -24 25
-46 42 -49 38 -4 -3 -7 1 -7 10 0 9 -4 17 -10 17 -5 0 -20 11 -34 25 -14 14
-29 25 -33 25 -5 0 -16 8 -25 18 -26 27 -46 42 -58 42 -6 0 -8 5 -5 10 3 6 -1
10 -9 10 -9 0 -16 5 -16 10 0 6 -6 10 -14 10 -8 0 -16 4 -18 8 -3 8 -67 58
-117 92 -13 8 -32 23 -43 32 -11 10 -29 20 -39 23 -11 4 -17 10 -15 14 3 4
-10 14 -29 21 -19 7 -37 20 -40 27 -2 8 -9 12 -14 8 -6 -3 -14 3 -20 12 -6 10
-11 14 -11 10 0 -5 -14 2 -32 14 -17 13 -28 16 -23 8 6 -10 3 -10 -11 2 -16
14 -42 26 -74 34 -3 1 -17 7 -32 13 -15 6 -35 9 -43 6 -8 -4 -15 -2 -15 3 0 6
-12 9 -28 9 -15 -1 -35 2 -44 7 -12 5 -18 4 -18 -5 0 -9 -3 -9 -10 2 -8 12
-10 12 -10 1 0 -10 -3 -11 -14 -2 -10 8 -16 9 -21 1 -3 -6 -10 -8 -15 -5 -5 3
-11 1 -15 -4 -3 -6 -12 -8 -20 -4 -8 3 -15 0 -15 -6 0 -6 -6 -8 -14 -5 -8 3
-17 1 -21 -5 -3 -6 -15 -11 -26 -11 -11 0 -17 -4 -14 -10 3 -5 -1 -10 -9 -10
-8 0 -21 -7 -30 -15 -8 -9 -19 -17 -23 -18 -11 -3 -73 -67 -65 -67 3 0 -4 -7
-16 -16 -12 -8 -20 -19 -17 -24 3 -4 -2 -13 -10 -20 -8 -7 -15 -19 -15 -26 0
-8 -4 -14 -10 -14 -5 0 -7 -7 -4 -15 4 -8 2 -15 -3 -15 -8 0 -12 -15 -15 -57
-1 -7 -5 -13 -9 -13 -4 0 -6 -9 -4 -20 2 -11 0 -20 -4 -20 -5 0 -8 -8 -8 -17
0 -34 -3 -43 -14 -43 -8 0 -7 6 2 18 11 14 11 15 -1 5 -17 -15 -21 -53 -6 -53
6 0 5 -4 -2 -9 -16 -10 -12 -31 8 -49 8 -8 10 -11 4 -8 -7 3 -14 -1 -18 -9 -3
-9 0 -15 10 -15 10 0 12 -5 7 -12 -4 -7 -9 -22 -10 -33 -2 -16 -1 -17 6 -5 5
8 7 19 4 25 -4 5 -3 7 2 3 4 -4 10 -29 12 -55 2 -26 9 -51 16 -55 9 -6 8 -8
-2 -8 -12 0 -12 -3 -3 -12 7 -7 12 -24 12 -39 0 -15 5 -31 11 -34 6 -4 8 -14
5 -22 -4 -9 -1 -22 5 -29 6 -7 8 -18 4 -24 -3 -5 -3 -10 2 -10 4 0 9 -15 10
-32 2 -18 7 -34 12 -36 5 -2 8 -14 5 -27 -2 -13 0 -27 6 -30 6 -4 8 -11 4 -16
-3 -5 0 -17 7 -26 8 -9 14 -21 14 -27 2 -26 18 -66 27 -66 5 0 7 -4 4 -8 -2
-4 5 -28 16 -52 12 -25 22 -51 24 -58 1 -8 6 -21 10 -30 8 -20 16 -60 15 -84
0 -10 4 -20 10 -23 5 -4 9 -17 9 -31 0 -13 6 -24 13 -24 8 0 7 -4 -3 -10 -8
-5 -10 -10 -5 -10 6 0 11 -16 12 -36 1 -20 6 -41 12 -47 5 -5 7 -16 4 -23 -3
-8 0 -14 6 -14 6 0 11 -5 11 -11 0 -5 -5 -7 -11 -3 -7 4 -6 -3 2 -17 7 -13 14
-35 15 -48 2 -13 6 -31 10 -40 4 -9 8 -18 8 -21 1 -3 7 -15 14 -27 7 -13 10
-23 7 -23 -2 0 9 -22 26 -50 17 -28 35 -50 40 -50 5 0 9 -7 9 -15 0 -8 4 -15
10 -15 5 0 20 -10 33 -22 13 -13 34 -32 48 -44 37 -32 78 -93 83 -124 1 -3 5
-11 9 -17 5 -7 5 -17 2 -23 -3 -5 -1 -10 5 -10 6 0 8 -4 5 -10 -3 -5 -1 -10 5
-10 6 0 9 -4 6 -9 -4 -5 -1 -22 6 -38 6 -15 10 -32 9 -37 -1 -4 4 -15 11 -24
10 -12 10 -14 1 -8 -9 5 -11 2 -7 -8 3 -9 9 -16 13 -16 3 0 7 -10 7 -22 2 -25
5 -37 28 -112 8 -27 12 -54 9 -59 -3 -6 -1 -7 5 -3 11 6 16 -5 13 -26 0 -4 18
-27 42 -51 37 -40 79 -64 99 -59 4 1 5 -5 2 -13 -4 -8 -2 -15 4 -15 6 0 13 6
15 13 4 9 6 9 6 0 1 -7 6 -13 12 -13 5 0 8 4 5 9 -3 5 6 12 19 15 16 4 23 11
19 18 -5 7 -3 8 5 3 7 -4 22 2 37 16 13 12 24 19 24 14 0 -4 11 4 25 19 14 15
25 24 25 20 0 -4 13 6 28 22 16 16 35 30 42 32 6 1 19 9 27 17 13 14 28 19 45
16 5 0 8 4 8 10 0 5 5 7 10 4 6 -3 10 -1 10 5 0 6 5 8 10 5 6 -3 10 -2 10 3 0
5 13 15 29 22 37 15 91 63 91 79 0 8 7 11 15 7 10 -4 15 1 15 16 0 12 3 19 6
15 7 -7 74 87 74 103 0 6 5 8 10 5 6 -3 10 1 10 9 0 9 5 16 10 16 6 0 10 7 10
16 0 8 5 12 10 9 6 -3 10 -2 10 3 0 5 11 10 25 10 14 0 25 -4 25 -9 0 -5 6 -9
14 -9 8 0 18 -9 21 -20 3 -11 11 -20 16 -20 15 0 74 -63 71 -75 -2 -5 -1 -7 3
-3 4 4 19 -4 33 -17 14 -13 38 -29 54 -36 16 -6 25 -16 21 -23 -3 -6 -3 -8 2
-4 4 4 13 4 19 -1 6 -6 46 -27 88 -49 43 -22 75 -42 72 -44 -3 -3 7 -8 21 -12
14 -4 25 -14 25 -23 0 -9 3 -14 6 -11 3 3 17 -5 31 -18 14 -13 38 -29 53 -36
16 -7 27 -15 25 -18 -2 -3 24 -6 56 -7 37 -2 58 1 54 7 -3 6 -1 10 4 10 6 0
11 -4 11 -10 0 -23 88 65 102 102 5 16 15 25 21 21 6 -4 7 -1 3 6 -5 7 0 21
10 32 9 10 14 22 11 25 -4 4 2 19 12 33 10 14 16 32 13 40 -2 8 0 11 5 8 5 -3
18 22 28 56 10 34 21 67 26 72 4 6 10 24 13 40 2 17 5 31 6 33 2 1 4 7 5 12 1
6 4 11 5 13 1 1 4 11 5 22 2 11 8 34 15 50 6 17 11 32 10 34 -1 2 3 7 8 10 6
3 12 12 14 20 2 7 18 29 35 48 18 20 30 41 26 47 -3 6 -3 8 2 4 4 -4 12 -2 19
5 21 24 56 76 56 86 0 5 7 11 15 15 8 3 12 12 9 21 -3 8 -1 15 5 15 6 0 10 3
9 8 0 4 2 16 6 27 4 11 12 32 18 47 6 15 8 29 7 31 -2 2 2 11 9 20 8 9 11 21
7 27 -3 5 -1 10 5 10 6 0 8 5 5 10 -3 6 -2 10 3 10 8 0 10 5 14 48 1 9 9 32
19 50 10 17 15 32 10 32 -5 0 -3 13 5 30 9 16 16 39 17 50 1 11 5 20 10 20 5
0 7 6 4 14 -3 8 2 22 12 32 9 11 15 27 13 37 -2 9 2 17 8 17 6 0 8 5 5 10 -3
6 -1 10 6 10 7 0 10 3 6 6 -3 3 -1 18 5 33 5 14 12 37 14 50 3 14 8 29 12 35
3 6 7 16 9 21 1 6 5 24 9 40 4 17 7 38 8 48 0 9 3 17 6 17 3 0 6 8 6 18 1 9 4
29 7 45 3 15 1 27 -4 27 -6 0 -3 7 6 16 12 12 13 19 4 30 -9 11 -8 15 4 20 10
3 14 14 11 30 -2 13 0 24 5 24 6 0 8 9 6 20 -2 11 1 20 8 20 8 0 8 3 -1 12 -8
8 -8 17 -1 31 6 10 9 27 6 36 -2 9 2 22 10 29 15 15 18 36 3 27 -6 -3 -7 1 -4
9 3 9 12 16 20 16 16 0 9 26 -15 54 -15 18 -15 18 9 12 l25 -7 -25 15 c-15 10
-19 15 -10 16 12 0 12 2 2 9 -8 4 -12 19 -11 32 2 13 0 30 -5 37 -4 7 -5 16
-2 19 3 3 1 12 -5 20 -6 7 -8 13 -4 13 4 0 1 8 -6 17 -12 15 -12 16 1 8 13 -8
13 -6 2 8 -8 9 -11 20 -8 25 3 6 -1 15 -9 22 -8 7 -12 16 -9 21 3 5 0 9 -5 9
-6 0 -10 3 -9 8 2 4 -8 25 -21 47 -14 22 -24 43 -23 48 1 4 -5 7 -15 7 -9 0
-13 3 -10 6 10 10 -70 79 -119 103 -40 20 -80 33 -111 34 -7 0 -10 4 -7 9 3 4
0 8 -6 8 -6 0 -8 5 -4 13 5 8 2 8 -9 -2 -19 -15 -23 -1 -5 17 7 7 8 13 3 13
-41 6 -54 5 -49 -2 2 -4 10 -7 17 -5 7 1 9 1 4 -1 -4 -3 -5 -8 -2 -13 3 -4 -3
-14 -13 -21 -15 -13 -16 -12 -3 4 15 19 2 23 -18 5 -11 -11 -12 -8 -7 12 3 14
3 19 0 13 -4 -10 -9 -9 -21 2 -8 8 -19 15 -26 15 -6 0 -4 -6 4 -12z m19 -38
c-24 -15 -37 -11 -16 5 11 8 22 12 25 9 3 -3 -1 -9 -9 -14z"/>
</g>
</svg>
